<?xml version="1.0" encoding="UTF-8" standalone="no"?>
<svg
   xmlns:dc="http://purl.org/dc/elements/1.1/"
   xmlns:cc="http://creativecommons.org/ns#"
   xmlns:rdf="http://www.w3.org/1999/02/22-rdf-syntax-ns#"
   xmlns:svg="http://www.w3.org/2000/svg"
   xmlns="http://www.w3.org/2000/svg"
   xmlns:sodipodi="http://sodipodi.sourceforge.net/DTD/sodipodi-0.dtd"
   xmlns:inkscape="http://www.inkscape.org/namespaces/inkscape"
   width="4cm"
   height="4cm"
   viewBox="0 0 40 39.999999"
   version="1.1"
   id="svg8"
   inkscape:version="1.0.1 (1.0.1+r75)"
   sodipodi:docname="klasika-logo-sercxisto.svg">
  <defs
     id="defs2" />
  <sodipodi:namedview
     id="base"
     pagecolor="#ffffff"
     bordercolor="#666666"
     borderopacity="1.0"
     inkscape:pageopacity="0.0"
     inkscape:pageshadow="2"
     inkscape:zoom="0.35"
     inkscape:cx="400"
     inkscape:cy="560"
     inkscape:document-units="mm"
     inkscape:current-layer="layer1"
     inkscape:document-rotation="0"
     showgrid="false"
     inkscape:window-width="1366"
     inkscape:window-height="705"
     inkscape:window-x="0"
     inkscape:window-y="30"
     inkscape:window-maximized="1"
     inkscape:snap-bbox="true"
     inkscape:snap-bbox-midpoints="false"
     inkscape:snap-bbox-edge-midpoints="true"
     units="cm" />
  <metadata
     id="metadata5">
    <rdf:RDF>
      <cc:Work
         rdf:about="">
        <dc:format>image/svg+xml</dc:format>
        <dc:type
           rdf:resource="http://purl.org/dc/dcmitype/StillImage" />
        <dc:title></dc:title>
      </cc:Work>
    </rdf:RDF>
  </metadata>
  <g
     inkscape:label="Tavolo 1"
     inkscape:groupmode="layer"
     id="layer1">
    <circle
       style="opacity:1;fill:#4747ff;fill-opacity:1;stroke:none;stroke-width:0.234315;stroke-linecap:butt;stroke-linejoin:miter;stroke-miterlimit:4;stroke-dasharray:none;stroke-dashoffset:0;stroke-opacity:0.501961;paint-order:markers stroke fill"
       id="path899"
       cx="20"
       cy="19.999983"
       r="19.999983" />
    <g
       id="g897"
       style="fill:#292929;fill-opacity:1"
       transform="scale(0.39999962)">
      <path
         id="path851"
         style="opacity:1;fill:#292929;fill-opacity:1;stroke:none;stroke-width:1.54905;stroke-linecap:butt;stroke-linejoin:miter;stroke-miterlimit:4;stroke-dasharray:none;stroke-dashoffset:0;stroke-opacity:0.501961;paint-order:markers stroke fill"
         d="M 188.97656,0 A 188.97638,188.97638 0 0 0 0,188.97656 188.97638,188.97638 0 0 0 94.488281,352.63477 L 141.73242,270.80469 A 94.488188,94.488188 0 0 1 94.488281,188.97656 94.488188,94.488188 0 0 1 188.97656,94.488281 94.488188,94.488188 0 0 1 283.46484,188.97656 94.488188,94.488188 0 0 1 236.2207,270.80664 l 47.24414,81.82813 A 188.97638,188.97638 0 0 0 377.95312,188.97656 188.97638,188.97638 0 0 0 188.97656,0 Z"
         transform="scale(0.26458333)" />
      <path
         id="path871"
         style="opacity:1;fill:#292929;fill-opacity:1;stroke:none;stroke-width:1.0338;stroke-linecap:butt;stroke-linejoin:miter;stroke-miterlimit:4;stroke-dasharray:none;stroke-dashoffset:0;stroke-opacity:0.501961;paint-order:markers stroke fill"
         d="m 188.74805,141.73242 a 47.244094,47.244094 0 0 0 -47.01563,47.24414 47.244094,47.244094 0 0 0 23.62305,40.91406 l 23.62109,-40.91406 23.6211,40.91406 a 47.244094,47.244094 0 0 0 23.62304,-40.91406 47.244094,47.244094 0 0 0 -47.24414,-47.24414 47.244094,47.244094 0 0 0 -0.22851,0 z"
         transform="scale(0.26458333)" />
    </g>
  </g>
</svg>
